<svg width="100%" viewBox="0 0 1200 260" xmlns="http://www.w3.org/2000/svg" role="img">
<title>temple</title>
<desc>Fail the build when a repo drifts past its declared single-purpose scope.</desc>
<rect x="0" y="0" width="1200" height="260" fill="#14121f"/>
<rect x="50" y="50" width="6" height="160" rx="3" fill="#8b7cf6"/>
<rect x="264" y="50" width="6" height="160" rx="3" fill="#8b7cf6"/>
<rect x="60" y="50" width="200" height="160" rx="8" fill="none" stroke="#4a3f8a" stroke-width="1"/>
<line x1="90" y1="58" x2="90" y2="202" stroke="#4a3f8a" stroke-width="1.5" opacity="0.55"/>
<line x1="122" y1="58" x2="122" y2="202" stroke="#4a3f8a" stroke-width="1.5" opacity="0.55"/>
<line x1="154" y1="58" x2="154" y2="202" stroke="#4a3f8a" stroke-width="1.5" opacity="0.55"/>
<line x1="186" y1="58" x2="186" y2="202" stroke="#4a3f8a" stroke-width="1.5" opacity="0.55"/>
<line x1="218" y1="58" x2="218" y2="202" stroke="#4a3f8a" stroke-width="1.5" opacity="0.55"/>
<line x1="250" y1="58" x2="250" y2="202" stroke="#4a3f8a" stroke-width="1.5" opacity="0.55"/>
<line x1="68" y1="76"  x2="252" y2="76"  stroke="#6f63b3" stroke-width="1.5" opacity="0.7"/>
<line x1="68" y1="104" x2="252" y2="104" stroke="#6f63b3" stroke-width="1.5" opacity="0.7"/>
<line x1="68" y1="132" x2="252" y2="132" stroke="#6f63b3" stroke-width="1.5" opacity="0.7"/>
<line x1="68" y1="160" x2="252" y2="160" stroke="#6f63b3" stroke-width="1.5" opacity="0.7"/>
<line x1="68" y1="188" x2="252" y2="188" stroke="#6f63b3" stroke-width="1.5" opacity="0.7"/>
<text x="300" y="120" font-family="system-ui, -apple-system, 'Segoe UI', Roboto, sans-serif" font-size="64" font-weight="500" fill="#f4f2fa">temple</text>
<text x="302" y="155" font-family="system-ui, -apple-system, 'Segoe UI', Roboto, sans-serif" font-size="20" font-weight="400" fill="#b8b0d1">Fail the build when a repo drifts past its declared scope.</text>
<rect x="300" y="198" width="60" height="32" rx="16" fill="none" stroke="#4a3f8a" stroke-width="1"/>
<text x="330" y="219" font-family="system-ui, -apple-system, 'Segoe UI', Roboto, sans-serif" font-size="13" fill="#b8b0d1" text-anchor="middle">Go</text>
<rect x="376" y="198" width="130" height="32" rx="16" fill="none" stroke="#4a3f8a" stroke-width="1"/>
<text x="441" y="219" font-family="system-ui, -apple-system, 'Segoe UI', Roboto, sans-serif" font-size="13" fill="#b8b0d1" text-anchor="middle">SARIF 2.1.0</text>
<rect x="522" y="198" width="220" height="32" rx="16" fill="none" stroke="#4a3f8a" stroke-width="1"/>
<text x="632" y="219" font-family="system-ui, -apple-system, 'Segoe UI', Roboto, sans-serif" font-size="13" fill="#b8b0d1" text-anchor="middle">Zero user-facing deps</text>
</svg>
